<svg width="16" height="16" viewBox="0 0 16 16" fill="none" xmlns="http://www.w3.org/2000/svg">
<path d="M3.56671 12.4333C3.87782 12.7445 4.3445 12.7445 4.65562 12.4333L11.1112 5.9778V11.1111C11.1112 11.5778 11.4222 11.8889 11.8889 11.8889C12.3556 11.8889 12.6666 11.5778 12.6666 11.1111V4.11377C12.6667 4.10981 12.6666 4.10587 12.6666 4.10191C12.6626 3.64738 12.3618 3.34273 11.9099 3.33358C11.903 3.33344 11.896 3.33333 11.8889 3.33333L11.8858 3.33337H4.88892C4.42226 3.33337 4.11116 3.64447 4.11116 4.11113C4.11116 4.5778 4.42226 4.8889 4.88892 4.8889H10.0222L3.56671 11.3444C3.2556 11.6555 3.2556 12.1222 3.56671 12.4333Z" fill="#757366"/>
</svg>
