<svg width="24" height="24" viewBox="0 0 24 24" fill="none" xmlns="http://www.w3.org/2000/svg">
<g clip-path="url(#clip0_10_600)">
<g clip-path="url(#clip1_10_600)">
<path d="M24 0H0V24H24V0Z" fill="white"/>
<path d="M20.8089 12.2025C20.8089 11.61 20.7564 11.0475 20.6664 10.5H12.1914V13.8825H17.0439C16.8264 14.9925 16.1889 15.93 15.2439 16.5675V18.8175H18.1389C19.8339 17.25 20.8089 14.94 20.8089 12.2025Z" fill="#6D9BFF"/>
<path d="M12.1912 20.9998C14.6212 20.9998 16.6537 20.1898 18.1387 18.8173L15.2437 16.5673C14.4337 17.1073 13.4062 17.4373 12.1912 17.4373C9.84369 17.4373 7.85619 15.8548 7.14369 13.7173H4.15869V16.0348C5.63619 18.9748 8.67369 20.9998 12.1912 20.9998Z" fill="#34A853"/>
<path d="M7.14366 13.7178C6.95616 13.1778 6.85866 12.6003 6.85866 12.0003C6.85866 11.4003 6.96366 10.8228 7.14366 10.2828V7.96533H4.15866C3.54366 9.18033 3.19116 10.5453 3.19116 12.0003C3.19116 13.4553 3.54366 14.8203 4.15866 16.0353L7.14366 13.7178Z" fill="#FBBC05"/>
<path d="M12.1912 6.5625C13.5187 6.5625 14.7037 7.02 15.6412 7.9125L18.2062 5.3475C16.6537 3.8925 14.6212 3 12.1912 3C8.67369 3 5.63619 5.025 4.15869 7.965L7.14369 10.2825C7.85619 8.145 9.84369 6.5625 12.1912 6.5625Z" fill="#EA4335"/>
</g>
</g>
<defs>
<clipPath id="clip0_10_600">
<rect width="24" height="24" fill="white"/>
</clipPath>
<clipPath id="clip1_10_600">
<rect width="24" height="24" fill="white"/>
</clipPath>
</defs>
</svg>
