<svg width="20" height="20" viewBox="0 0 20 20" fill="none" xmlns="http://www.w3.org/2000/svg">
<path d="M16.6667 8.33332C16.6667 12.4942 12.0509 16.8275 10.5009 18.1658C10.2042 18.3889 9.79584 18.3889 9.49921 18.1658C7.94921 16.8275 3.33337 12.4942 3.33337 8.33332C3.33337 4.65389 6.32061 1.66666 10 1.66666C13.6795 1.66666 16.6667 4.65389 16.6667 8.33332" stroke="#94A3B8" stroke-width="1.66667" stroke-linecap="round" stroke-linejoin="round"/>
<path d="M7.5 8.33334C7.5 9.71313 8.62021 10.8333 10 10.8333C11.3798 10.8333 12.5 9.71313 12.5 8.33334C12.5 6.95356 11.3798 5.83334 10 5.83334C8.62021 5.83334 7.5 6.95356 7.5 8.33334V8.33334" stroke="#94A3B8" stroke-width="1.66667" stroke-linecap="round" stroke-linejoin="round"/>
</svg>
