<svg width="24" height="24" viewBox="0 0 24 24" fill="none" xmlns="http://www.w3.org/2000/svg">
<path d="M5.60156 7.00781C5.35156 7.00781 5.14844 7.08594 4.99219 7.24219C4.83594 7.39844 4.75781 7.57031 4.75781 7.75781V16.7578C4.75781 16.9297 4.83594 17.0977 4.99219 17.2617C5.14844 17.4258 5.35156 17.5078 5.60156 17.5078H18.3984C18.6484 17.5078 18.8516 17.4258 19.0078 17.2617C19.1641 17.0977 19.2422 16.9297 19.2422 16.7578V7.75781C19.2422 7.57031 19.1641 7.39844 19.0078 7.24219C18.8516 7.08594 18.6484 7.00781 18.3984 7.00781H5.60156ZM3.25781 7.75781C3.25781 7.11719 3.49219 6.58203 3.96094 6.15234C4.42969 5.72266 4.97656 5.50781 5.60156 5.50781H18.3984C19.0234 5.50781 19.5703 5.72266 20.0391 6.15234C20.5078 6.58203 20.7422 7.11719 20.7422 7.75781V16.7578C20.7422 17.3984 20.5078 17.9336 20.0391 18.3633C19.5703 18.793 19.0234 19.0078 18.3984 19.0078H5.60156C4.97656 19.0078 4.42969 18.793 3.96094 18.3633C3.49219 17.9336 3.25781 17.3984 3.25781 16.7578V7.75781ZM3.53906 6.79688C3.66406 6.625 3.83203 6.52734 4.04297 6.50391C4.25391 6.48047 4.4375 6.53125 4.59375 6.65625L12 12.3047L19.4062 6.65625C19.5625 6.53125 19.7461 6.48047 19.957 6.50391C20.168 6.52734 20.3359 6.625 20.4609 6.79688C20.5859 6.95312 20.6328 7.13672 20.6016 7.34766C20.5703 7.55859 20.4766 7.72656 20.3203 7.85156L12.4453 13.8516C12.3203 13.9453 12.1719 13.9922 12 13.9922C11.8281 13.9922 11.6797 13.9453 11.5547 13.8516L3.67969 7.85156C3.52344 7.72656 3.42969 7.55859 3.39844 7.34766C3.36719 7.13672 3.41406 6.95312 3.53906 6.79688Z" fill="white"/>
</svg>
