<svg width="16" height="16" viewBox="0 0 16 16" fill="none" xmlns="http://www.w3.org/2000/svg">
<path d="M7.68324 1.52997C7.74284 1.40956 7.86556 1.33337 7.99991 1.33337C8.13426 1.33337 8.25698 1.40956 8.31658 1.52997L9.85658 4.6493C10.0622 5.06629 10.4598 5.35546 10.9199 5.42264L14.3639 5.92664C14.497 5.94592 14.6077 6.03912 14.6493 6.16704C14.6909 6.29496 14.6562 6.4354 14.5599 6.5293L12.0692 8.95464C11.7355 9.27938 11.5831 9.74768 11.6619 10.2066L12.2499 13.6333C12.2734 13.7664 12.2189 13.9012 12.1096 13.9806C12.0003 14.0601 11.8552 14.0701 11.7359 14.0066L8.65724 12.388C8.24551 12.1715 7.75364 12.1715 7.34191 12.388L4.26391 14.0066C4.14467 14.0698 3.99989 14.0595 3.89077 13.9801C3.78166 13.9008 3.72726 13.7662 3.75058 13.6333L4.33791 10.2073C4.41691 9.74813 4.26453 9.27953 3.93058 8.95464L1.43991 6.52997C1.34278 6.43616 1.30762 6.2952 1.34929 6.16676C1.39097 6.03833 1.50221 5.94487 1.63591 5.92597L5.07924 5.42264C5.53981 5.35587 5.93798 5.06665 6.14391 4.6493L7.68324 1.52997" stroke="#F59E0B" stroke-width="1.33333" stroke-linecap="round" stroke-linejoin="round"/>
</svg>
