<svg width="28" height="28" viewBox="0 0 28 28" fill="none" xmlns="http://www.w3.org/2000/svg">
<path d="M11.6665 11.6666V5.83329C11.6665 5.18939 12.1893 4.66663 12.8332 4.66663H15.1665C15.8104 4.66663 16.3332 5.18939 16.3332 5.83329V11.6666M16.3332 6.99996C20.1966 6.99996 23.3332 10.1366 23.3332 14V17.5M4.6665 17.5V14C4.6665 10.1366 7.8031 6.99996 11.6665 6.99996" stroke="#2563EB" stroke-width="2.33333" stroke-linecap="round" stroke-linejoin="round"/>
<path d="M3.49992 17.5H24.4999C25.1438 17.5 25.6666 18.0228 25.6666 18.6667V21C25.6666 21.6439 25.1438 22.1667 24.4999 22.1667H3.49992C2.85602 22.1667 2.33325 21.6439 2.33325 21V18.6667C2.33325 18.0228 2.85602 17.5 3.49992 17.5V17.5" stroke="#2563EB" stroke-width="2.33333" stroke-linecap="round" stroke-linejoin="round"/>
</svg>
