<svg width="28" height="28" viewBox="0 0 28 28" fill="none" xmlns="http://www.w3.org/2000/svg">
<path d="M2.33325 11.0834C2.3333 8.42564 3.97177 6.04301 6.45346 5.09184C8.93515 4.14066 11.7464 4.81784 13.5228 6.7947C13.6463 6.9268 13.8191 7.00177 13.9999 7.00177C14.1808 7.00177 14.3535 6.9268 14.4771 6.7947C16.2482 4.80461 19.0663 4.11865 21.5539 5.0721C24.0416 6.02555 25.6793 8.4193 25.6666 11.0834C25.6666 13.755 23.9166 15.75 22.1666 17.5L15.7593 23.6985C15.3195 24.2036 14.6839 24.4954 14.0143 24.4996C13.3446 24.5039 12.7054 24.2202 12.2593 23.7207L5.83325 17.5C4.08325 15.75 2.33325 13.7667 2.33325 11.0834" stroke="#2563EB" stroke-width="2.33333" stroke-linecap="round" stroke-linejoin="round"/>
<path d="M3.75659 15.1667H11.0833L11.6666 14L13.9999 19.25L16.3333 11.0834L18.0833 15.1667H24.2316" stroke="#2563EB" stroke-width="2.33333" stroke-linecap="round" stroke-linejoin="round"/>
</svg>
