<svg width="96" height="48" viewBox="0 0 96 48" fill="none" xmlns="http://www.w3.org/2000/svg">
<g clip-path="url(#clip0_9_315)">
<g clip-path="url(#clip1_9_315)">
<mask id="mask0_9_315" style="mask-type:luminance" maskUnits="userSpaceOnUse" x="6" y="11" width="84" height="26">
<path d="M90 11.82H6V36.18H90V11.82Z" fill="white"/>
</mask>
<g mask="url(#mask0_9_315)">
<path d="M14.8112 11.82L6 17.91L10.4545 20.9794L14.8112 17.9588L19.1678 20.9794L23.6224 17.91L14.8112 11.82Z" fill="#FA555F"/>
<path d="M6 30.0899L14.8112 36.1799V30.0412L10.4546 27.0206V20.9793L6 17.9099V30.0899Z" fill="#27AECF"/>
<path d="M19.2166 24H14.811V30.0413H19.2166V24Z" fill="#27AECF"/>
<path d="M14.811 36.18L23.6222 30.09V24L14.811 30.0413V36.18Z" fill="#073262"/>
<path d="M19.2166 27.0206L14.811 23.9999L19.1677 20.9793L23.6222 23.9999L19.2166 27.0206Z" fill="#FA555F"/>
<path d="M35.909 26.3385C37.1328 26.3385 38.2097 25.218 38.2097 23.8538C38.2097 22.4897 37.1817 21.3691 35.909 21.3691C34.6853 21.3691 33.6572 22.4897 33.6572 23.8538C33.6572 25.218 34.6853 26.3385 35.909 26.3385ZM33.951 28.3361C34.3426 29.0669 35.0768 29.5541 35.909 29.5541C37.1328 29.5541 38.1118 28.4822 38.1118 27.1668V27.0693H38.0629C37.3775 27.7514 36.4964 28.1899 35.5174 28.1899C33.4125 28.1899 31.6992 26.2411 31.6992 23.9025C31.6992 21.5153 33.4125 19.6152 35.5174 19.6152C36.4964 19.6152 37.3775 20.0537 38.0629 20.7357H38.1118V19.8588H40.0699V27.2642C40.0699 29.6028 38.3566 31.5029 36.0069 31.5029C34.4405 31.5029 33.0698 30.6746 32.3356 29.4079L33.951 28.3361Z" fill="#27AECF"/>
<path d="M47.1188 22.7333C46.6782 21.905 45.944 21.3691 45.0139 21.3691C44.0838 21.3691 43.3496 21.8563 42.909 22.7333V22.782H47.1188V22.7333ZM46.9229 25.559L48.2936 26.9232C47.5104 27.7027 46.3845 28.1899 45.2097 28.1899C42.8111 28.1899 40.853 26.2898 40.853 23.9025C40.853 21.5153 42.7132 19.6152 45.0629 19.6152C47.4125 19.6152 49.2726 21.5153 49.2726 23.9025C49.2726 24.2923 49.2236 24.3897 49.2236 24.3897H42.8111C42.8111 25.3154 43.888 26.3385 45.1118 26.3385C45.7971 26.3385 46.4335 25.9975 46.9229 25.559Z" fill="#27AECF"/>
<path d="M52.0631 23.8538V27.9463H50.105V19.8101H52.0631V20.7845H52.112C52.7973 19.9562 53.6784 19.5665 54.6085 19.5665C58.133 19.5665 58.182 22.7333 58.182 23.7077V27.9463H56.2239V23.8538C56.2239 22.8794 56.2239 21.3691 54.168 21.3691C52.9932 21.3691 52.0631 22.4897 52.0631 23.8538Z" fill="#27AECF"/>
<path d="M63.2238 21.3691C61.9511 21.3691 60.9231 22.4897 60.9231 23.8538C60.9231 25.218 61.9511 26.3386 63.2238 26.3386C64.4476 26.3386 65.4756 25.218 65.4756 23.8538C65.5245 22.4897 64.4966 21.3691 63.2238 21.3691ZM63.6644 28.1899C62.6854 28.1899 61.8043 27.8002 61.1189 27.0694H61.07V31.1618H59.1119V19.8101H61.07V20.687H61.1189C61.8043 20.005 62.6854 19.5665 63.6644 19.5665C65.7693 19.5665 67.4826 21.4666 67.4826 23.8538C67.4826 26.2411 65.7693 28.1899 63.6644 28.1899Z" fill="#27AECF"/>
<path d="M72.3776 26.3386C73.6014 26.3386 74.6293 25.2667 74.6293 23.8538C74.6293 22.4897 73.6014 21.3691 72.3776 21.3691C71.1538 21.3691 70.1259 22.4897 70.1259 23.8538C70.0769 25.2667 71.1538 26.3386 72.3776 26.3386ZM71.9371 19.5665C72.9161 19.5665 73.7972 20.005 74.4825 20.687H74.5315V19.8101H76.4895V27.995H74.5315V27.1668L74.4825 27.1181C73.7972 27.8002 72.9161 28.2386 71.9371 28.2386C69.8322 28.2386 68.1189 26.3386 68.1189 23.9513C68.1189 21.4666 69.8322 19.5665 71.9371 19.5665Z" fill="#27AECF"/>
<path d="M84.6645 26.8745C83.8808 27.654 82.755 28.1899 81.5805 28.1899C79.182 28.1899 77.2238 26.2898 77.2238 23.9025C77.2238 21.5153 79.1325 19.6152 81.5805 19.6152C82.8038 19.6152 83.8808 20.1024 84.6645 20.9306L83.2935 22.1973C82.8533 21.7101 82.2653 21.4665 81.5805 21.4665C80.2583 21.4665 79.182 22.5871 79.182 23.9513C79.182 25.3154 80.2095 26.436 81.5805 26.436C82.2653 26.436 82.902 26.1437 83.3423 25.6565L84.6645 26.8745Z" fill="#27AECF"/>
<path d="M88.6297 21.6615V27.9464H86.6715V21.6615H85.3005V19.8101H86.6715V16.1075H88.6297V19.8101H90V21.6615H88.6297Z" fill="#27AECF"/>
</g>
</g>
</g>
<defs>
<clipPath id="clip0_9_315">
<rect width="96" height="48" fill="white"/>
</clipPath>
<clipPath id="clip1_9_315">
<rect width="96" height="48" fill="white"/>
</clipPath>
</defs>
</svg>
