<svg width="96" height="48" viewBox="0 0 96 48" fill="none" xmlns="http://www.w3.org/2000/svg">
<g clip-path="url(#clip0_9_299)">
<path d="M10.1903 19.4951C13.8681 15.877 18.314 14.9423 20.0876 17.4144C21.8605 19.8859 20.3085 24.8533 16.6298 28.4707C12.9534 32.0881 8.5071 33.0224 6.73352 30.551C4.96054 28.0785 6.51301 23.1122 10.1903 19.4951Z" fill="#F58220"/>
<path d="M12.6239 17.5657C12.2282 17.8604 11.8073 18.205 11.4099 18.5989C8.18649 21.7486 6.84808 26.0791 8.43511 28.2441C10.0708 30.4101 14.0373 29.6226 17.3096 26.4245C19.0701 24.7256 20.2603 22.7328 20.7557 20.8879C20.9047 19.5346 20.7061 18.3282 20.0861 17.4183C18.6737 15.4987 15.6488 15.6461 12.6239 17.5657Z" fill="#B02A30"/>
<path d="M14.4471 30.2555C12.7251 31.5383 10.947 32.1745 9.2113 31.908C9.93948 31.9455 10.5282 31.1437 11.0103 30.0662C11.5 28.9627 11.7936 27.9391 12.0286 26.9813C12.3699 25.4649 12.3966 24.3809 12.2224 24.1488C11.9281 23.7628 11.259 23.8628 10.5015 24.2946C10.1385 24.4938 9.65673 24.3598 10.2264 23.676C10.8034 22.9842 13.0942 21.3226 13.9185 21.0628C14.8235 20.8039 15.8547 21.1564 15.5056 22.1399C15.258 22.8578 12.0886 31.1127 14.4471 30.2555ZM17.0405 17.4522C17.4687 17.8776 17.2074 18.8089 16.4775 19.5397C15.741 20.2647 14.7817 20.5238 14.3664 20.1049C13.9247 19.6861 14.1858 18.7418 14.9227 18.0037C15.6665 17.2661 16.6246 17.0394 17.0405 17.4522Z" fill="white"/>
<path d="M20.7209 31.8181L22.8722 24.0133H25.6574L23.5059 31.8181H20.7209ZM32.3975 26.529C32.4281 26.1518 32.3406 25.8679 32.1327 25.6761C31.9252 25.4865 31.5998 25.3915 31.1576 25.3915C30.4503 25.3915 29.8483 25.6062 29.3471 26.0341C28.8489 26.4626 28.4905 27.0707 28.2721 27.8621C28.062 28.6247 28.0892 29.2096 28.3519 29.6182C28.6146 30.0278 29.0939 30.2318 29.7915 30.2318C30.302 30.2318 30.7418 30.1153 31.112 29.8797C31.4792 29.6471 31.7633 29.3014 31.9614 28.8472H34.8453C34.4599 29.8696 33.8042 30.6242 32.8821 31.1113C31.9579 31.5979 30.7112 31.8424 29.1416 31.8424C27.6277 31.8424 26.5433 31.5024 25.8841 30.8206C25.2275 30.1402 25.0678 29.1883 25.4039 27.9672C25.7729 26.63 26.4923 25.5991 27.5643 24.8743C28.6373 24.1501 29.9837 23.7873 31.5991 23.7873C33.0023 23.7873 34.012 24.0169 34.6276 24.4773C35.2418 24.9375 35.4572 25.6225 35.2694 26.529H32.3975ZM34.7909 31.8181L36.9425 24.0133H39.7271L37.5754 31.8181H34.7909ZM46.4675 26.529C46.4984 26.1518 46.4099 25.8679 46.2026 25.6761C45.995 25.4865 45.6713 25.3915 45.2273 25.3915C44.5206 25.3915 43.9187 25.6062 43.4178 26.0341C42.9181 26.4626 42.5604 27.0707 42.3424 27.8621C42.1322 28.6247 42.16 29.2096 42.4219 29.6182C42.6845 30.0278 43.1634 30.2318 43.8611 30.2318C44.3723 30.2318 44.8117 30.1153 45.1815 29.8797C45.55 29.6471 45.8339 29.3014 46.0325 28.8472H48.9144C48.5302 29.8696 47.875 30.6242 46.9514 31.1113C46.0285 31.5979 44.7807 31.8424 43.2124 31.8424C41.6984 31.8424 40.6132 31.5024 39.9545 30.8206C39.2974 30.1402 39.1376 29.1883 39.4743 27.9672C39.8428 26.63 40.562 25.5991 41.6349 24.8743C42.7072 24.1501 44.0536 23.7873 45.6698 23.7873C47.072 23.7873 48.0826 24.0169 48.6986 24.4773C49.3117 24.9375 49.5269 25.6225 49.339 26.529H46.4675ZM48.8609 31.8181L51.0125 24.0133H53.7973L51.6457 31.8181H48.8609ZM59.7533 25.595L59.3043 27.225H60.741C61.0918 27.225 61.371 27.1558 61.5818 27.0208C61.7924 26.8861 61.9363 26.6804 62.0104 26.41C62.0849 26.1426 62.0539 25.9384 61.9169 25.8015C61.7786 25.6639 61.5369 25.595 61.1904 25.595H59.7533ZM58.9471 28.5221L58.4753 30.2357H60.1268C60.5183 30.2357 60.8345 30.1639 61.0742 30.0193C61.3153 29.8742 61.4747 29.6615 61.5524 29.3775C61.6301 29.0961 61.589 28.8829 61.4311 28.7385C61.271 28.594 60.9951 28.5221 60.5993 28.5221H58.9471ZM55.3934 31.8181L57.5446 24.0133H62.5936C63.1934 24.0133 63.6266 24.0362 63.8882 24.0847C64.1522 24.1323 64.3746 24.2095 64.553 24.3201C64.7952 24.4687 64.9542 24.6765 65.0294 24.9448C65.1047 25.2129 65.0927 25.5286 64.9928 25.8915C64.8715 26.3322 64.6401 26.6936 64.2962 26.9755C63.9537 27.2587 63.4748 27.483 62.8566 27.6472C63.5028 27.8026 63.9368 28.0446 64.158 28.374C64.3793 28.7007 64.4106 29.1469 64.2566 29.7071C64.0655 30.3985 63.7062 30.922 63.179 31.2817C62.6508 31.6396 61.9679 31.8181 61.1289 31.8181H55.3934ZM69.5392 29.4593C68.6926 29.4593 68.1011 29.5111 67.7643 29.6182C67.4279 29.7232 67.2224 29.9092 67.149 30.1728C67.1004 30.3511 67.1372 30.4921 67.2581 30.5935C67.3793 30.6928 67.5768 30.7432 67.8481 30.7432C68.2932 30.7432 68.6566 30.6446 68.934 30.4453C69.2114 30.2453 69.4057 29.9449 69.515 29.5443L69.5392 29.4593ZM69.1657 31.0129C68.8304 31.3267 68.4418 31.5596 68.0018 31.7116C67.5617 31.8639 67.0587 31.9396 66.4913 31.9396C65.6839 31.9396 65.1025 31.8021 64.7438 31.5278C64.384 31.251 64.2746 30.8625 64.4135 30.3568C64.6028 29.6704 65.1151 29.1739 65.9477 28.8685C66.7827 28.5629 68.0802 28.404 69.845 28.3896L69.868 28.3286L69.8918 28.2632C69.9684 27.9839 69.9374 27.7761 69.8018 27.6371C69.664 27.499 69.4212 27.4303 69.0711 27.4303C68.7541 27.4303 68.4965 27.4814 68.2993 27.5803C68.1025 27.6817 67.9607 27.8332 67.8711 28.0343H65.4522C65.6296 27.4303 66.0506 26.983 66.7187 26.6879C67.384 26.394 68.3187 26.2454 69.5198 26.2454C70.6718 26.2454 71.4824 26.4172 71.9513 26.7621C72.4201 27.1054 72.5568 27.63 72.3629 28.3318L71.599 31.1029C71.5511 31.2771 71.5205 31.4154 71.5083 31.5221C71.4961 31.6267 71.4979 31.726 71.5127 31.8181H69.0833C69.07 31.6878 69.0725 31.5564 69.0862 31.4245C69.1002 31.2907 69.1272 31.156 69.1657 31.0129ZM72.3841 31.8181L73.6326 27.2879C73.6833 27.1036 73.7204 26.9358 73.7438 26.7808C73.7696 26.6254 73.7826 26.4908 73.7837 26.3776H76.4025C76.413 26.4626 76.4048 26.5747 76.3815 26.7133C76.3583 26.8525 76.3163 27.0336 76.2555 27.2554C76.677 26.9139 77.0993 26.659 77.5245 26.4947C77.9505 26.3287 78.393 26.2454 78.852 26.2454C79.7025 26.2454 80.2913 26.4551 80.6168 26.8759C80.9438 27.2955 80.9955 27.9093 80.7728 28.7172L79.9178 31.8181H77.3048L78.138 28.7962C78.252 28.3814 78.2528 28.0764 78.138 27.8861C78.0233 27.6961 77.7855 27.6004 77.4248 27.6004C77.001 27.6004 76.6493 27.7268 76.3695 27.9814C76.0905 28.2368 75.8798 28.6178 75.738 29.13L74.9977 31.8181H72.3841ZM83.4225 31.8181H80.8433L82.995 24.0133H85.5743L84.3128 28.5908L86.9115 26.3776H90L87.1065 28.7962L89.091 31.8181H85.8308L84.1778 29.0761L83.4225 31.8181Z" fill="#004A80"/>
</g>
<defs>
<clipPath id="clip0_9_299">
<rect width="96" height="48" fill="white"/>
</clipPath>
</defs>
</svg>
