<svg width="96" height="48" viewBox="0 0 96 48" fill="none" xmlns="http://www.w3.org/2000/svg">
<g clip-path="url(#clip0_9_334)">
<g clip-path="url(#clip1_9_334)">
<path d="M7.79004 23.9999C7.79004 18.4707 13.0184 13.9894 19.4715 13.9894C25.9247 13.9894 31.1531 18.4707 31.1531 23.9999C31.1531 29.5291 25.9247 34.0104 19.4715 34.0104C13.0184 34.0104 7.79004 29.5291 7.79004 23.9999Z" fill="#003974"/>
<path d="M18.0504 17.2195L20.7666 16.3279L20.7823 30.9448L18.0425 31.8598L18.0504 17.2195Z" fill="#EC1C24"/>
<path d="M19.6598 26.3227C18.4822 27.7382 17.3438 29.185 15.2085 29.185C12.194 29.185 10.7651 26.2836 10.7651 23.8513C10.7651 21.4191 11.8799 18.76 14.8238 18.76C16.0956 18.76 17.3282 19.5343 18.0582 20.3555V22.3341C17.4459 21.9274 16.0799 21.5208 15.185 21.5051C13.3244 21.4738 11.6758 22.2793 11.7072 24.1094C11.7308 25.3685 12.979 26.2288 14.2272 26.2288C16.1427 26.2288 17.2967 24.4926 18.2624 23.1709C18.5293 22.8268 19.2908 21.8101 19.4164 21.6459C20.4919 20.1521 21.7322 18.7835 23.8676 18.7835C26.3798 18.7835 27.7928 20.8012 28.1932 22.8816H27.0627C26.6074 22.209 25.7282 21.7945 24.8646 21.7945C22.8863 21.7945 21.7087 23.6089 20.7195 24.9384C20.7195 24.9384 19.9502 25.9786 19.6754 26.3149L19.6598 26.3227ZM28.256 25.0088C28.0048 27.0969 26.8272 29.2085 24.2522 29.2163C22.7528 29.2163 21.5831 28.1918 20.7666 26.9405V25.4937C21.7793 25.9942 22.7293 26.5338 23.8833 26.5495C25.3042 26.5729 26.5838 26.0255 27.1177 25.0088H28.256Z" fill="white"/>
<path d="M33.1391 31.7815H33.5552V29.6777L35.612 31.7815H36.1851L33.9555 29.5526L36.0124 27.5662H35.4629L33.5552 29.4588V27.5662H33.1391V31.7815Z" fill="#003974"/>
<path fill-rule="evenodd" clip-rule="evenodd" d="M36.931 30.2409C36.931 29.5292 37.2921 28.9504 37.9594 28.9504C38.6267 28.9504 38.9878 29.5213 38.9878 30.2409C38.9878 30.9604 38.6267 31.5313 37.9594 31.5313C37.2921 31.5313 36.931 30.9604 36.931 30.2409ZM36.5149 30.2409C36.5149 31.0855 36.9545 31.852 37.9594 31.852C38.9642 31.852 39.4039 31.0777 39.4039 30.2409C39.4039 29.404 38.9642 28.6298 37.9594 28.6298C36.9545 28.6298 36.5149 29.404 36.5149 30.2409Z" fill="#003974"/>
<path d="M41.4604 28.7002H40.7538V27.8243L40.3691 27.9573V28.7002H39.7646V29.0287H40.3691V30.8275C40.3691 31.3906 40.3927 31.852 41.0757 31.852C41.2641 31.852 41.4525 31.8051 41.5467 31.7659L41.5232 31.4531C41.4133 31.4923 41.3191 31.5235 41.1699 31.5235C40.8638 31.5235 40.7538 31.2967 40.7538 31.0152V29.0209H41.4604V28.6924V28.7002Z" fill="#003974"/>
<path fill-rule="evenodd" clip-rule="evenodd" d="M43.8862 30.4207C43.8862 30.757 43.8706 31.5313 42.9677 31.5313C42.6145 31.5313 42.324 31.3826 42.324 30.976C42.324 30.3034 43.1169 30.233 43.7763 30.233H43.8862V30.4207ZM43.9255 31.7815H44.3023C44.2709 31.5703 44.2709 31.3826 44.2709 31.1324V29.7716C44.2709 28.966 43.949 28.6219 43.1875 28.6219C42.9127 28.6219 42.5124 28.7158 42.2769 28.8331V29.2006C42.5595 29.0208 42.8656 28.9426 43.1875 28.9426C43.7056 28.9426 43.8941 29.2085 43.8941 29.7325V29.8889H43.8234C43.0227 29.8889 41.9158 29.9358 41.9158 30.9682C41.9158 31.2497 42.0571 31.8362 42.9363 31.8362C43.321 31.8362 43.7527 31.6329 43.9177 31.2653H43.9333V31.7581L43.9255 31.7815Z" fill="#003974"/>
<path d="M45.1816 31.7816H45.5584V30.2018L47.0893 31.7816H47.6152L45.9274 30.0688L47.4347 28.7002H46.9402L45.5584 29.9672V27.2534H45.1816V31.7816Z" fill="#003974"/>
<path d="M49.939 31.7815H50.363V27.9806H50.3708L51.9645 31.7815H52.3177L53.8643 27.9806H53.8722V31.7815H54.2961V27.5662H53.6916L52.1372 31.2732L50.5906 27.5662H49.939V31.7815Z" fill="#003974"/>
<path fill-rule="evenodd" clip-rule="evenodd" d="M57.0358 30.4207C57.0358 30.757 57.0201 31.5313 56.1173 31.5313C55.764 31.5313 55.4735 31.3826 55.4735 30.976C55.4735 30.3034 56.2664 30.233 56.9259 30.233H57.0358V30.4207ZM57.075 31.7815H57.4519C57.4205 31.5703 57.4205 31.3826 57.4205 31.1324V29.7716C57.4205 28.966 57.0986 28.6219 56.3371 28.6219C56.0624 28.6219 55.6619 28.7158 55.4264 28.8331V29.2006C55.709 29.0208 56.0153 28.9426 56.3371 28.9426C56.8553 28.9426 57.0437 29.2085 57.0437 29.7325V29.8889H56.973C56.1722 29.8889 55.0653 29.9358 55.0653 30.9682C55.0653 31.2497 55.2066 31.8362 56.0859 31.8362C56.4706 31.8362 56.9024 31.6329 57.0672 31.2653H57.0829V31.7581L57.075 31.7815Z" fill="#003974"/>
<path d="M58.3312 31.7815H58.7159V30.1314C58.7159 29.5918 58.9513 28.9504 59.6344 28.9504C60.2624 28.9504 60.3644 29.4118 60.3644 29.9437V31.7815H60.7491V29.9359C60.7491 29.1772 60.5215 28.6219 59.6971 28.6219C59.2418 28.6219 58.8964 28.8801 58.7315 29.2163H58.7159V27.2455H58.3312V31.7815Z" fill="#003974"/>
<path fill-rule="evenodd" clip-rule="evenodd" d="M62.0839 27.3708H61.6992V27.8791H62.0839V27.3708ZM61.7071 31.7816H62.0918V28.7003H61.7071V31.7816Z" fill="#003974"/>
<path d="M63.0492 31.7815H63.4339V30.0766C63.4339 29.5604 63.6537 28.9504 64.3524 28.9504C64.8784 28.9504 65.0824 29.3258 65.0824 29.9045V31.7815H65.4671V29.8107C65.4671 29.1303 65.1766 28.6219 64.4152 28.6219C63.7714 28.6219 63.5437 28.966 63.4103 29.2476H63.3946V28.7002H63.0256C63.0492 28.9504 63.0492 29.1928 63.0492 29.4274V31.7815Z" fill="#003974"/>
<path fill-rule="evenodd" clip-rule="evenodd" d="M66.6605 30.2409C66.6605 29.6465 66.8489 28.9504 67.579 28.9504C68.262 28.9504 68.4975 29.6778 68.4975 30.2409C68.4975 30.8039 68.262 31.5313 67.579 31.5313C66.8489 31.5313 66.6605 30.8431 66.6605 30.2409ZM68.8743 27.2533H68.4897V29.2242H68.474C68.419 29.0755 68.1128 28.6298 67.5083 28.6298C66.5977 28.6298 66.2366 29.3102 66.2366 30.2409C66.2366 31.1715 66.6605 31.8519 67.5083 31.8519C67.948 31.8519 68.2699 31.6798 68.474 31.2889H68.4897V31.7815H68.8743V27.2455V27.2533Z" fill="#003974"/>
<path d="M69.8006 31.7815H70.1853V30.2565C70.1853 29.7012 70.3502 29.0208 70.9547 29.0208C71.0489 29.0208 71.1588 29.0365 71.2373 29.0599V28.661C71.1666 28.6454 71.0646 28.6219 70.9704 28.6219C70.5779 28.6219 70.3188 28.9426 70.1775 29.2867H70.1618V28.6923H69.7771C69.8006 28.9191 69.8006 29.0443 69.8006 29.3806V31.7737V31.7815Z" fill="#003974"/>
<path fill-rule="evenodd" clip-rule="evenodd" d="M73.5612 30.4207C73.5612 30.757 73.5456 31.5313 72.6427 31.5313C72.2895 31.5313 71.999 31.3826 71.999 30.976C71.999 30.3034 72.7919 30.233 73.4514 30.233H73.5612V30.4207ZM73.5927 31.7815H73.9695C73.938 31.5703 73.938 31.3826 73.938 31.1324V29.7716C73.938 28.966 73.6162 28.6219 72.8547 28.6219C72.5799 28.6219 72.1796 28.7158 71.944 28.8331V29.2006C72.2267 29.0208 72.5328 28.9426 72.8547 28.9426C73.3728 28.9426 73.5612 29.2085 73.5612 29.7325V29.8889H73.4906C72.6898 29.8889 71.5829 29.9358 71.5829 30.9682C71.5829 31.2497 71.7243 31.8362 72.6035 31.8362C72.9882 31.8362 73.4121 31.6329 73.5848 31.2653H73.6005V31.7581L73.5927 31.7815Z" fill="#003974"/>
<path fill-rule="evenodd" clip-rule="evenodd" d="M76.9763 27.926H77.5493C77.91 27.926 78.468 28.012 78.468 28.6221C78.468 29.2947 77.8793 29.4041 77.439 29.4041H76.9763V27.926ZM76.9605 29.7717H77.3295C77.9498 29.7717 78.6015 29.8499 78.6015 30.6007C78.6015 31.2733 77.9655 31.4219 77.4 31.4219H76.9605V29.7717ZM76.5443 31.7816H77.3843C78.2633 31.7816 79.017 31.5001 79.017 30.5773C79.017 30.022 78.6563 29.6701 78.1223 29.5762V29.5606C78.6405 29.4589 78.8918 29.1382 78.8918 28.5986C78.8918 27.7852 78.24 27.5584 77.5493 27.5584H76.5443V31.7816Z" fill="#003974"/>
<path fill-rule="evenodd" clip-rule="evenodd" d="M81.6548 30.4207C81.6548 30.757 81.639 31.5313 80.736 31.5313C80.3828 31.5313 80.0925 31.3826 80.0925 30.976C80.0925 30.3034 80.8778 30.233 81.5453 30.233H81.6548V30.4207ZM81.6863 31.7815H82.0628C82.032 31.5703 82.032 31.3826 82.032 31.1324V29.7716C82.032 28.966 81.7095 28.6219 80.9483 28.6219C80.6738 28.6219 80.2733 28.7158 80.0378 28.8331V29.2006C80.3205 29.0208 80.6265 28.9426 80.9483 28.9426C81.4665 28.9426 81.6548 29.2085 81.6548 29.7325V29.8889H81.5843C80.7833 29.8889 79.6763 29.9358 79.6763 30.9682C79.6763 31.2497 79.818 31.8362 80.697 31.8362C81.0818 31.8362 81.5138 31.6329 81.6788 31.2653H81.6863V31.7581V31.7815Z" fill="#003974"/>
<path d="M82.9507 31.7815H83.3347V30.0766C83.3347 29.5604 83.5552 28.9504 84.2535 28.9504C84.7792 28.9504 84.984 29.3258 84.984 29.9045V31.7815H85.368V29.8107C85.368 29.1303 85.0777 28.6219 84.3165 28.6219C83.673 28.6219 83.445 28.966 83.3115 29.2476H83.304V28.7002H82.935C82.9582 28.9504 82.9582 29.1928 82.9582 29.4274V31.7815H82.9507Z" fill="#003974"/>
<path d="M86.3182 31.7816H86.703V30.2018L88.2337 31.7816H88.7595L87.0637 30.0688L88.5787 28.7002H88.0845L86.703 29.9672V27.2534H86.3182V31.7816Z" fill="#003974"/>
<path fill-rule="evenodd" clip-rule="evenodd" d="M43.7216 24.0625C42.6147 24.0625 42.1672 23.1474 42.1672 22.1308C42.1672 21.1141 42.6226 20.1834 43.7216 20.1834C44.8207 20.1834 45.276 21.0984 45.276 22.1308C45.276 23.1631 44.8207 24.0625 43.7216 24.0625ZM43.7216 25.7282C46.0061 25.7282 47.7489 24.4066 47.7489 22.1229C47.7489 19.8393 46.0061 18.5098 43.7216 18.5098C41.4371 18.5098 39.6943 19.8314 39.6943 22.1229C39.6943 24.4144 41.4371 25.7282 43.7216 25.7282Z" fill="#EC1C24"/>
<path d="M47.5289 20.3399H48.8948V23.1475C48.8948 24.7898 49.4129 25.7283 51.5561 25.7283C52.1528 25.7283 52.6081 25.6501 53.0556 25.5953L52.9771 24.0468C52.7416 24.086 52.4825 24.1407 52.247 24.1407C51.4855 24.1407 51.2892 23.7184 51.2892 22.8815V20.3399H52.9614V18.674H51.2892V16.2887L48.9341 17.1255V18.674H47.521V20.3399H47.5289Z" fill="#EC1C24"/>
<path d="M61.3378 25.5719H63.7321V22.1542H63.7636L65.6712 25.5719H68.5759L65.9695 21.8336L68.3718 18.674H65.7576L63.7636 21.5677H63.7321V16.2966L61.3378 17.1178V25.5719Z" fill="#EC1C24"/>
<path d="M33.3197 25.5719H35.7141V22.1542H35.7376L37.6531 25.5719H40.5499L37.9436 21.8336L40.3537 18.674H37.7317L35.7376 21.5677H35.7141V16.2966L33.3197 17.0786V25.5719Z" fill="#EC1C24"/>
<path fill-rule="evenodd" clip-rule="evenodd" d="M55.6071 23.3899C55.6071 22.7173 56.2508 22.4671 57.0751 22.4671C57.4362 22.4671 57.7895 22.4905 58.0957 22.5061C58.0957 23.3195 57.5147 24.1564 56.6041 24.1564C56.0389 24.1564 55.6071 23.8748 55.6071 23.3899ZM60.49 25.6032C60.3801 25.0557 60.3566 24.5083 60.3566 23.953V21.3565C60.3566 19.2215 58.81 18.4629 57.0202 18.4629C55.9839 18.4629 55.0811 18.6115 54.2254 18.9556L54.2647 20.5901C54.9398 20.2147 55.717 20.0661 56.5021 20.0661C57.3734 20.0661 58.0879 20.3242 58.1035 21.2705C57.7974 21.2158 57.3656 21.1767 56.9731 21.1767C55.6777 21.1767 53.354 21.4348 53.354 23.562C53.354 25.0792 54.5943 25.7596 55.976 25.7596C56.973 25.7596 57.6482 25.3685 58.1977 24.5005H58.2213C58.2213 24.8602 58.2605 25.2278 58.2763 25.5953H60.4979L60.49 25.6032Z" fill="#EC1C24"/>
</g>
</g>
<defs>
<clipPath id="clip0_9_334">
<rect width="96" height="48" fill="white"/>
</clipPath>
<clipPath id="clip1_9_334">
<rect width="96" height="48" fill="white"/>
</clipPath>
</defs>
</svg>
