<svg width="96" height="48" viewBox="0 0 96 48" fill="none" xmlns="http://www.w3.org/2000/svg">
<g clip-path="url(#clip0_9_362)">
<g clip-path="url(#clip1_9_362)">
<mask id="mask0_9_362" style="mask-type:luminance" maskUnits="userSpaceOnUse" x="12" y="15" width="72" height="18">
<path d="M83.0648 15H12.9349V33H83.0648V15Z" fill="white"/>
</mask>
<g mask="url(#mask0_9_362)">
<path d="M19.8146 16.548H17.2573V21.336H15.4923V16.548H12.9349V15.108H19.8146V16.548Z" fill="#4B4D4F"/>
<path d="M20.6792 21.336V15.108H26.6584V16.44H22.4441V17.52H26.4063V18.78H22.4441V20.004H26.8745V21.336H20.6792Z" fill="#4B4D4F"/>
<path d="M27.631 18.348C27.631 17.556 27.7751 16.944 28.0992 16.44C28.3874 15.936 28.8557 15.576 29.468 15.36C30.0803 15.108 30.8007 15 31.6652 15C31.9533 15 32.2055 15 32.4576 15.036C32.6737 15.036 32.8898 15.072 33.106 15.108C33.3221 15.144 33.5021 15.18 33.6823 15.216C33.8624 15.252 34.0785 15.288 34.2946 15.36L33.9344 16.62C33.6823 16.584 33.4301 16.512 33.178 16.476C32.9258 16.44 32.7098 16.404 32.4576 16.404C32.2415 16.404 31.9893 16.368 31.7732 16.368C31.377 16.368 31.0168 16.404 30.7286 16.476C30.4405 16.548 30.1884 16.656 30.0083 16.836C29.8282 16.98 29.6841 17.196 29.612 17.448C29.504 17.7 29.468 17.988 29.468 18.348C29.468 18.672 29.504 18.924 29.612 19.14C29.6841 19.356 29.8282 19.536 30.0083 19.68C30.1884 19.824 30.4405 19.932 30.6926 20.004C30.9808 20.076 31.305 20.112 31.7012 20.112C32.0974 20.112 32.5296 20.076 32.9258 20.04C33.3581 20.004 33.7543 19.932 34.1505 19.824L34.4747 21.048C34.2586 21.12 34.0785 21.156 33.8624 21.192C33.6462 21.228 33.4301 21.264 33.178 21.3C32.9258 21.336 32.6737 21.372 32.3855 21.372C32.0974 21.408 31.7732 21.408 31.413 21.408C30.8007 21.408 30.2604 21.336 29.7561 21.228C29.2879 21.12 28.8917 20.94 28.5675 20.688C28.2434 20.436 27.9912 20.112 27.8471 19.752C27.7031 19.392 27.631 18.888 27.631 18.348Z" fill="#4B4D4F"/>
<path d="M35.447 21.336V15.108H37.248V17.772H40.6699V15.108H42.4708V21.336H40.6699V19.212H37.248V21.336H35.447Z" fill="#4B4D4F"/>
<path fill-rule="evenodd" clip-rule="evenodd" d="M27.955 26.772H32.7456C33.8262 26.772 34.7267 27.636 34.7267 28.68V33H27.5588C26.9104 33 26.3702 32.496 26.3702 31.848V30.336C26.3702 29.76 26.8744 29.256 27.4868 29.256H31.4489L31.0167 30.12H28.0991C27.955 30.12 27.847 30.228 27.847 30.336V31.56C27.847 31.704 27.991 31.776 28.0991 31.776H33.1418V28.932C33.1418 28.392 32.6376 27.96 32.0973 27.96H27.3787L27.955 26.772ZM67.2163 24.468V33H60.2645C59.6161 33 59.0758 32.496 59.0758 31.848V28.644C59.0758 27.6 59.9764 26.736 61.0569 26.736H65.0191L64.4428 27.96H61.6693C61.129 27.96 60.6247 28.392 60.6247 28.932V31.56C60.6247 31.704 60.7687 31.776 60.8768 31.776H65.7034V24.468H67.2163ZM42.7591 33H44.3079V28.644C44.3079 27.6 43.4074 26.736 42.3268 26.736H39.049L38.4727 27.96H41.7145C42.2548 27.96 42.7591 28.392 42.7591 28.932V33ZM36.3475 24.468V33H37.8964V24.468H36.3475ZM23.4886 33H25.0375V28.644C25.0375 27.6 24.1369 26.736 23.0564 26.736H12.9349V33H14.4838V28.212C14.4838 28.068 14.6278 27.96 14.7359 27.96H17.9056C18.0497 27.96 18.1577 28.068 18.1577 28.176V33H19.7066V28.212C19.7066 28.068 19.8507 27.996 19.9587 27.996H22.372C22.9123 27.996 23.4166 28.428 23.4166 28.968V33H23.4886ZM75.2482 26.772H71.3945C70.3139 26.772 69.4134 27.636 69.4134 28.68V33H70.9623V28.932C70.9623 28.392 71.4665 27.96 72.0068 27.96H74.6722L75.2482 26.772ZM55.5099 26.772C56.5905 26.772 57.491 27.636 57.491 28.68V33H55.9421V28.932C55.9421 28.392 55.4379 27.96 54.8976 27.96H51.1876V33H49.6747V26.772C51.6198 26.772 53.5648 26.772 55.5099 26.772ZM46.2169 27.168L47.7658 26.304V33H46.2169V27.168ZM47.7658 25.404V24.468H46.2169V26.268L47.7658 25.404ZM76.329 26.772H81.12C82.2 26.772 83.1007 27.636 83.1007 28.68V33H75.969C75.3202 33 74.7803 32.496 74.7803 31.848V30.336C74.7803 29.76 75.2842 29.256 75.897 29.256H79.8592L79.4265 30.12H76.509C76.365 30.12 76.257 30.228 76.257 30.336V31.56C76.257 31.704 76.401 31.776 76.509 31.776H81.552V28.932C81.552 28.392 81.048 27.96 80.5072 27.96H75.753L76.329 26.772Z" fill="#E81738"/>
</g>
</g>
</g>
<defs>
<clipPath id="clip0_9_362">
<rect width="96" height="48" fill="white"/>
</clipPath>
<clipPath id="clip1_9_362">
<rect width="96" height="48" fill="white"/>
</clipPath>
</defs>
</svg>
