<svg width="56" height="76" viewBox="0 0 56 76" fill="none" xmlns="http://www.w3.org/2000/svg">
<rect width="56" height="56" rx="8" fill="#2563EB" fill-opacity="0.08"/>
<path d="M25.6667 25.6666V19.8333C25.6667 19.1894 26.1895 18.6666 26.8334 18.6666H29.1667C29.8106 18.6666 30.3334 19.1894 30.3334 19.8333V25.6666M30.3334 21C34.1968 21 37.3334 24.1366 37.3334 28V31.5M18.6667 31.5V28C18.6667 24.1366 21.8033 21 25.6667 21" stroke="#2563EB" stroke-width="2.33333" stroke-linecap="round" stroke-linejoin="round"/>
<path d="M17.5 31.5H38.5C39.1439 31.5 39.6666 32.0228 39.6666 32.6667V35C39.6666 35.6439 39.1439 36.1667 38.5 36.1667H17.5C16.8561 36.1667 16.3333 35.6439 16.3333 35V32.6667C16.3333 32.0228 16.8561 31.5 17.5 31.5V31.5" stroke="#2563EB" stroke-width="2.33333" stroke-linecap="round" stroke-linejoin="round"/>
</svg>
