<svg width="56" height="76" viewBox="0 0 56 76" fill="none" xmlns="http://www.w3.org/2000/svg">
<rect width="56" height="56" rx="8" fill="#2563EB" fill-opacity="0.08"/>
<path d="M16.3333 25.0834C16.3334 22.4256 17.9718 20.043 20.4535 19.0918C22.9352 18.1407 25.7464 18.8178 27.5228 20.7947C27.6464 20.9268 27.8191 21.0018 28 21.0018C28.1808 21.0018 28.3536 20.9268 28.4771 20.7947C30.2483 18.8046 33.0664 18.1186 35.554 19.0721C38.0416 20.0256 39.6793 22.4193 39.6666 25.0834C39.6666 27.755 37.9166 29.75 36.1666 31.5L29.7593 37.6985C29.3196 38.2036 28.684 38.4954 28.0143 38.4996C27.3446 38.5039 26.7054 38.2202 26.2593 37.7207L19.8333 31.5C18.0833 29.75 16.3333 27.7667 16.3333 25.0834" stroke="#2563EB" stroke-width="2.33333" stroke-linecap="round" stroke-linejoin="round"/>
<path d="M17.7567 29.1667H25.0833L25.6667 28L28 33.25L30.3333 25.0834L32.0833 29.1667H38.2317" stroke="#2563EB" stroke-width="2.33333" stroke-linecap="round" stroke-linejoin="round"/>
</svg>
