<svg width="22" height="22" viewBox="0 0 22 22" fill="none" xmlns="http://www.w3.org/2000/svg">
<path d="M9.268 20C9.62528 20.6188 10.2855 20.9999 11 20.9999C11.7145 20.9999 12.3747 20.6188 12.732 20M21 7C21 4.7 20.2 2.7 19 1M2.262 14.326C1.99509 14.6185 1.92596 15.041 2.08571 15.4034C2.24546 15.7658 2.60399 15.9997 3 16H19C19.396 16.0001 19.7547 15.7666 19.9149 15.4045C20.0751 15.0424 20.0065 14.6199 19.74 14.327C18.41 12.956 17 11.499 17 7C17 3.68851 14.3115 1 11 1C7.68851 1 5 3.68851 5 7C5 11.499 3.589 12.956 2.262 14.326M3 1C1.8 2.7 1 4.7 1 7" stroke="#2563EB" stroke-width="2" stroke-linecap="round" stroke-linejoin="round"/>
</svg>
