<svg width="20" height="20" viewBox="0 0 20 20" fill="none" xmlns="http://www.w3.org/2000/svg">
<path d="M13.3332 6.66699C16.0946 6.66699 18.3332 8.90557 18.3332 11.667V17.5003H14.9998V11.667C14.9998 10.7465 14.2536 10.0003 13.3332 10.0003C12.4127 10.0003 11.6665 10.7465 11.6665 11.667V17.5003H8.33317V11.667C8.33317 8.90557 10.5717 6.66699 13.3332 6.66699L4.99984 7.50033V17.5003H1.6665V7.50033" stroke="#F1F5F9" stroke-width="1.66667" stroke-linecap="round" stroke-linejoin="round"/>
<path d="M1.6665 3.33366C1.6665 4.25352 2.41331 5.00033 3.33317 5.00033C4.25303 5.00033 4.99984 4.25352 4.99984 3.33366C4.99984 2.4138 4.25303 1.66699 3.33317 1.66699C2.41331 1.66699 1.6665 2.4138 1.6665 3.33366H1.6665" stroke="#F1F5F9" stroke-width="1.66667" stroke-linecap="round" stroke-linejoin="round"/>
</svg>
