<svg width="14" height="14" viewBox="0 0 14 14" fill="none" xmlns="http://www.w3.org/2000/svg">
<g clip-path="url(#clip0_130_459)">
<path d="M2.33366 3.5H11.667C12.3109 3.5 12.8337 4.02277 12.8337 4.66667V9.33333C12.8337 9.97723 12.3109 10.5 11.667 10.5H2.33366C1.68976 10.5 1.16699 9.97723 1.16699 9.33333V4.66667C1.16699 4.02277 1.68976 3.5 2.33366 3.5V3.5" stroke="#64748B" stroke-width="1.16667" stroke-linecap="round" stroke-linejoin="round"/>
<path d="M5.83301 7.00016C5.83301 7.64406 6.35577 8.16683 6.99967 8.16683C7.64358 8.16683 8.16634 7.64406 8.16634 7.00016C8.16634 6.35626 7.64358 5.8335 6.99967 5.8335C6.35577 5.8335 5.83301 6.35626 5.83301 7.00016V7.00016" stroke="#64748B" stroke-width="1.16667" stroke-linecap="round" stroke-linejoin="round"/>
<path d="M3.5 7H3.50583M10.5 7H10.5058" stroke="#64748B" stroke-width="1.16667" stroke-linecap="round" stroke-linejoin="round"/>
</g>
<defs>
<clipPath id="clip0_130_459">
<rect width="14" height="14" fill="white"/>
</clipPath>
</defs>
</svg>
