<svg width="19" height="14" viewBox="0 0 19 14" fill="none" xmlns="http://www.w3.org/2000/svg">
<path d="M0.886072 6.95632C0.816622 6.76922 0.816622 6.56341 0.886072 6.37632C2.26942 3.02207 5.53943 0.833496 9.16774 0.833496C12.796 0.833496 16.0661 3.02207 17.4494 6.37632C17.5189 6.56341 17.5189 6.76922 17.4494 6.95632C16.0661 10.3106 12.796 12.4991 9.16774 12.4991C5.53943 12.4991 2.26942 10.3106 0.886072 6.95632" stroke="#F97316" stroke-width="1.66667" stroke-linecap="round" stroke-linejoin="round"/>
<path d="M6.66797 6.6665C6.66797 8.04629 7.78818 9.1665 9.16797 9.1665C10.5478 9.1665 11.668 8.04629 11.668 6.6665C11.668 5.28672 10.5478 4.1665 9.16797 4.1665C7.78818 4.1665 6.66797 5.28672 6.66797 6.6665V6.6665" stroke="#F97316" stroke-width="1.66667" stroke-linecap="round" stroke-linejoin="round"/>
</svg>
