<svg width="14" height="14" viewBox="0 0 14 14" fill="none" xmlns="http://www.w3.org/2000/svg">
<path d="M11.6663 5.83317C11.6663 8.74575 8.43526 11.7791 7.35026 12.7159C7.14261 12.8721 6.85674 12.8721 6.64909 12.7159C5.56409 11.7791 2.33301 8.74575 2.33301 5.83317C2.33301 3.25757 4.42407 1.1665 6.99967 1.1665C9.57528 1.1665 11.6663 3.25757 11.6663 5.83317" stroke="#6B7280" stroke-width="1.16667" stroke-linecap="round" stroke-linejoin="round"/>
<path d="M5.25 5.8335C5.25 6.79935 6.03415 7.5835 7 7.5835C7.96585 7.5835 8.75 6.79935 8.75 5.8335C8.75 4.86764 7.96585 4.0835 7 4.0835C6.03415 4.0835 5.25 4.86764 5.25 5.8335V5.8335" stroke="#6B7280" stroke-width="1.16667" stroke-linecap="round" stroke-linejoin="round"/>
</svg>
