<svg width="19" height="14" viewBox="0 0 19 14" fill="none" xmlns="http://www.w3.org/2000/svg">
<path d="M0.885096 6.95632C0.815645 6.76922 0.815645 6.56341 0.885096 6.37632C2.26845 3.02207 5.53846 0.833496 9.16676 0.833496C12.7951 0.833496 16.0651 3.02207 17.4484 6.37632C17.5179 6.56341 17.5179 6.76922 17.4484 6.95632C16.0651 10.3106 12.7951 12.4991 9.16676 12.4991C5.53846 12.4991 2.26845 10.3106 0.885096 6.95632" stroke="#10B981" stroke-width="1.66667" stroke-linecap="round" stroke-linejoin="round"/>
<path d="M6.66699 6.6665C6.66699 8.04629 7.7872 9.1665 9.16699 9.1665C10.5468 9.1665 11.667 8.04629 11.667 6.6665C11.667 5.28672 10.5468 4.1665 9.16699 4.1665C7.7872 4.1665 6.66699 5.28672 6.66699 6.6665V6.6665" stroke="#10B981" stroke-width="1.66667" stroke-linecap="round" stroke-linejoin="round"/>
</svg>
