<svg width="20" height="20" viewBox="0 0 20 20" fill="none" xmlns="http://www.w3.org/2000/svg">
<g clip-path="url(#clip0_105_5267)">
<path d="M8.55699 17.4998C8.85472 18.0155 9.40491 18.3331 10.0003 18.3331C10.5957 18.3331 11.1459 18.0155 11.4437 17.4998M18.3337 6.6665C18.3337 4.74984 17.667 3.08317 16.667 1.6665M2.71866 12.7715C2.49623 13.0153 2.43862 13.3674 2.57175 13.6693C2.70487 13.9713 3.00365 14.1663 3.33366 14.1665H16.667C16.997 14.1666 17.2959 13.972 17.4294 13.6703C17.5629 13.3685 17.5057 13.0164 17.2837 12.7723C16.1753 11.6298 15.0003 10.4157 15.0003 6.6665C15.0003 3.90693 12.7599 1.6665 10.0003 1.6665C7.24075 1.6665 5.00033 3.90693 5.00033 6.6665C5.00033 10.4157 3.82449 11.6298 2.71866 12.7715M3.33366 1.6665C2.33366 3.08317 1.66699 4.74984 1.66699 6.6665" stroke="#0F172A" stroke-width="1.66667" stroke-linecap="round" stroke-linejoin="round"/>
</g>
<defs>
<clipPath id="clip0_105_5267">
<rect width="20" height="20" fill="white"/>
</clipPath>
</defs>
</svg>
